<svg height="512" viewBox="0 0 64 64" width="512" xmlns="http://www.w3.org/2000/svg"><path d="m32 19a13 13 0 1 0 13 13 13.015 13.015 0 0 0 -13-13zm0 24a11 11 0 1 1 11-11 11.013 11.013 0 0 1 -11 11z"/><path d="m6 5h2v2h-2z"/><path d="m10 5h2v2h-2z"/><path d="m14 5h2v2h-2z"/><path d="m62 23v-18a3 3 0 0 0 -3-3h-18a3 3 0 0 0 -3 3v11.128c-.331-.125-.661-.255-1-.359v-3.769a1 1 0 0 0 -1-1h-8a1 1 0 0 0 -1 1v3.769c-.339.1-.669.234-1 .359v-11.128a3 3 0 0 0 -3-3h-18a3 3 0 0 0 -3 3v18a3 3 0 0 0 3 3h11.128c-.125.331-.256.661-.36 1h-3.768a1 1 0 0 0 -1 1v8a1 1 0 0 0 1 1h3.768c.1.339.235.669.36 1h-11.128a3 3 0 0 0 -3 3v18a3 3 0 0 0 3 3h18a3 3 0 0 0 3-3v-11.128c.331.125.661.255 1 .359v3.769a1 1 0 0 0 1 1h8a1 1 0 0 0 1-1v-3.769c.339-.1.669-.234 1-.359v11.128a3 3 0 0 0 3 3h18a3 3 0 0 0 3-3v-18a3 3 0 0 0 -3-3h-11.128c.125-.331.256-.661.36-1h3.768a1 1 0 0 0 1-1v-8a1 1 0 0 0 -1-1h-3.768c-.1-.339-.235-.669-.36-1h11.128a3 3 0 0 0 3-3zm-3 1h-11.929l2.607-2.606a1 1 0 0 0 0-1.415l-5.657-5.657a1 1 0 0 0 -1.415 0l-2.606 2.606v-6.928h20v13a1 1 0 0 1 -1 1zm-18-20h18a1 1 0 0 1 1 1v3h-20v-3a1 1 0 0 1 1-1zm-36 0h18a1 1 0 0 1 1 1v3h-20v-3a1 1 0 0 1 1-1zm-1 19v-13h20v6.928l-2.606-2.606a1 1 0 0 0 -1.415 0l-5.657 5.657a1 1 0 0 0 0 1.415l2.607 2.606h-11.929a1 1 0 0 1 -1-1zm1 17h11.929l-2.607 2.606a.991.991 0 0 0 -.013 1.394h-10.309v-3a1 1 0 0 1 1-1zm18 20h-18a1 1 0 0 1 -1-1v-13h12.3l3.677 3.678a1 1 0 0 0 1.415 0l2.608-2.606v11.928a1 1 0 0 1 -1 1zm36 0h-18a1 1 0 0 1 -1-1v-11.928l2.606 2.606a1 1 0 0 0 1.415 0l3.679-3.678h12.3v13a1 1 0 0 1 -1 1zm1-19v3h-10.309a.991.991 0 0 0 -.013-1.394l-2.607-2.606h11.929a1 1 0 0 1 1 1zm-9-12v6h-3.524a1 1 0 0 0 -.969.75 14.864 14.864 0 0 1 -1.6 3.856 1 1 0 0 0 .154 1.216l2.492 2.491-4.244 4.244-2.491-2.492a1 1 0 0 0 -1.215-.154 14.925 14.925 0 0 1 -3.857 1.6 1 1 0 0 0 -.75.969v3.52h-5.996v-3.524a1 1 0 0 0 -.75-.969 14.925 14.925 0 0 1 -3.857-1.6 1 1 0 0 0 -1.215.154l-2.491 2.492-4.244-4.244 2.492-2.491a1 1 0 0 0 .154-1.216 14.864 14.864 0 0 1 -1.6-3.856 1 1 0 0 0 -.969-.75h-3.52v-5.996h3.524a1 1 0 0 0 .969-.75 14.864 14.864 0 0 1 1.6-3.856 1 1 0 0 0 -.154-1.216l-2.492-2.491 4.244-4.244 2.491 2.492a1 1 0 0 0 1.215.154 14.925 14.925 0 0 1 3.857-1.6 1 1 0 0 0 .75-.969v-3.52h6v3.524a1 1 0 0 0 .75.969 14.925 14.925 0 0 1 3.857 1.6 1.006 1.006 0 0 0 1.215-.154l2.491-2.492 4.244 4.244-2.492 2.491a1 1 0 0 0 -.154 1.216 14.864 14.864 0 0 1 1.6 3.856 1 1 0 0 0 .969.75z"/><path d="m42 5h2v2h-2z"/><path d="m46 5h2v2h-2z"/><path d="m50 5h2v2h-2z"/><path d="m6 41h2v2h-2z"/><path d="m10 41h2v2h-2z"/></svg>