<svg width="972" height="972" xmlns="http://www.w3.org/2000/svg">

 <g>
  <title>background</title>
  <rect fill="none" id="canvas_background" height="514" width="514" y="-1" x="-1"/>
 </g>
 <g>
  <title>Layer 1</title>
  <g id="svg_1">
   <path id="svg_2" d="m90,576l0.5,0c49.699997,0 90,-40.299988 90,-90s-40.300003,-90 -90,-90l-0.5,0c-49.700001,0 -90,40.299988 -90,90s40.299999,90 90,90z"/>
   <path id="svg_3" d="m617.5,576l1.099976,0c49.700012,0 90,-40.299988 90,-90s-40.299988,-90 -90,-90l-1.099976,0c-49.700012,0 -90,40.299988 -90,90s40.299988,90 90,90z"/>
   <path id="svg_4" d="m354.5,576c49.700012,0 90,-40.299988 90,-90s-40.299988,-90 -90,-90l-1.100006,0c-49.699982,0 -90,40.299988 -90,90s40.300018,90 90,90l1.100006,0z"/>
   <path id="svg_5" d="m881.5,576l0.5,0c49.700012,0 90,-40.299988 90,-90s-40.299988,-90 -90,-90l-0.5,0c-49.700012,0 -90,40.299988 -90,90s40.299988,90 90,90z"/>
  </g>
  <g id="svg_6"/>
  <g id="svg_7"/>
  <g id="svg_8"/>
  <g id="svg_9"/>
  <g id="svg_10"/>
  <g id="svg_11"/>
  <g id="svg_12"/>
  <g id="svg_13"/>
  <g id="svg_14"/>
  <g id="svg_15"/>
  <g id="svg_16"/>
  <g id="svg_17"/>
  <g id="svg_18"/>
  <g id="svg_19"/>
  <g id="svg_20"/>
  <ellipse ry="59.500006" rx="59.999997" id="svg_21" cy="487.499994" cx="354" stroke-width="0.001" stroke="#FF0000" fill="#DDDDDD"/>
  <ellipse ry="59.500006" rx="59.999997" id="svg_22" cy="487.499994" cx="354" stroke-width="0.001" stroke="#FF0000" fill="#DDDDDD"/>
 </g>
</svg>