<svg id="Layer_5" enable-background="new 0 0 64 64" height="512" viewBox="0 0 64 64" width="512" xmlns="http://www.w3.org/2000/svg"><path d="m44.594 46.503-10.393-7.195c-1.236-.856-2.684-1.308-4.187-1.308h-.488c-.402 0-.809.034-1.209.101l-6.555 1.092c-.742-1.89-1.925-3.259-3.094-4.568l1.722.287c.346.059.704.088 1.061.088h.103c1.121 0 2.228-.294 3.199-.85l4.284-2.448c3.591 4.586 9.111 7.298 14.963 7.298 10.477 0 19-8.523 19-19s-8.523-19-19-19-19 8.523-19 19c0 1.89.292 3.744.836 5.532l-3.057 1.834c-.921.552-2.032.753-3.084.562l-8.586-1.561c1.185-1.114 1.891-2.684 1.891-4.367v-2c0-1.687-.716-3.305-1.965-4.44-1.248-1.134-2.933-1.691-4.622-1.532-3.035.289-5.413 3.008-5.413 6.187v1.785c0 2.156 1.158 4.127 3 5.191v.395l-.154.154c-1.19 1.19-1.846 2.773-1.846 4.456 0 1.383.464 2.747 1.307 3.843l6.552 8.518c1.659 2.156 4.273 3.443 6.993 3.443.859 0 1.712-.125 2.535-.372l5.192-1.557 10.049 7.179c.688.49 1.497.75 2.343.75 1.439 0 2.717-.759 3.432-1.925l.414.301c.561.408 1.225.624 1.919.624 1.8 0 3.264-1.464 3.264-3.264v-.55c0-1.071-.525-2.074-1.406-2.683zm16.355-27.503h-3.949v2h3.949c-.378 6.446-4.35 11.931-9.949 14.474v-1.474c0-1.654-1.346-3-3-3h-8c-.551 0-1-.449-1-1s.449-1 1-1h4v-2h-4c-1.654 0-3 1.346-3 3s1.346 3 3 3h8c.551 0 1 .448 1 1v2.247c-1.582.488-3.26.753-5 .753-5.285 0-10.266-2.474-13.477-6.647.305-.511.477-1.102.477-1.716v-.288c0-1.807-1.441-3.275-3.233-3.337-.303-.983-.516-1.988-.636-3.012h1.869v-2h-2c0-.678.051-1.343.128-2h6.872c1.654 0 3-1.346 3-3v-5c0-.551.449-1 1-1s1 .449 1 1c0 1.654 1.346 3 3 3s3-1.346 3-3v-6.949c3.77.221 7.214 1.659 9.932 3.949h-4.932c-1.654 0-3 1.346-3 3s1.346 3 3 3h4c.551 0 1 .449 1 1s-.449 1-1 1h-8c-1.654 0-3 1.346-3 3s1.346 3 3 3h9v-2h-9c-.551 0-1-.449-1-1s.449-1 1-1h8c1.654 0 3-1.346 3-3s-1.346-3-3-3h-4c-.551 0-1-.449-1-1s.449-1 1-1h6.938c2.324 2.729 3.789 6.198 4.011 10zm-17.949-15.949v6.949c0 .551-.449 1-1 1s-1-.449-1-1c0-1.654-1.346-3-3-3s-3 1.346-3 3v5c0 .551-.449 1-1 1h-6.505c1.73-7.132 7.957-12.507 15.505-12.949zm-6.029 48.949c-.425 0-.833-.131-1.18-.378l-8.789-6.278.394-.118c1.578-.476 3.343-.179 4.688.799l6.69 4.866c-.339.664-1.023 1.109-1.803 1.109zm7.029-2.264c0 .698-.567 1.264-1.264 1.264-.269 0-.526-.083-.743-.241l-8.733-6.352c-1.848-1.344-4.273-1.751-6.44-1.097l-8.007 2.401c-2.652.797-5.681-.181-7.368-2.374l-6.553-8.517c-.575-.748-.892-1.679-.892-2.624 0-1.149.448-2.229 1.26-3.042l.74-.74v-2.49l-.599-.262c-1.459-.639-2.401-2.076-2.401-3.662v-1.785c0-2.16 1.583-4.003 3.604-4.196 1.145-.11 2.242.253 3.086 1.021.832.756 1.31 1.835 1.31 2.96v2c0 1.586-.942 3.023-2.401 3.662l-.599.262v1.911l11.337 2.062c1.528.277 3.138-.015 4.471-.815l3.148-1.889c.21-.127.45-.193.695-.193.744 0 1.349.605 1.349 1.349v.288c0 .483-.26.932-.68 1.171l-4.561 2.606c-.67.383-1.432.586-2.206.586h-.103c-.246 0-.492-.021-.731-.061l-11.554-1.925-.329 1.973 6.774 1.129c.477.603.968 1.173 1.452 1.715 1.037 1.159 2.004 2.283 2.652 3.704l-2.878.48.329 1.973 11.481-1.913c.291-.051.587-.075.88-.075h.488c1.094 0 2.149.329 3.049.952l10.392 7.195c.341.237.545.624.545 1.04z"/><path d="m56 58.586v-11.586h-2v11.586l-2.293-2.293-1.414 1.414 4.707 4.707 4.707-4.707-1.414-1.414z"/><path d="m7 56.586v-11.586h-2v11.586l-2.293-2.293-1.414 1.414 4.707 4.707 4.707-4.707-1.414-1.414z"/><path d="m25 58.586v-9.586h-2v9.586l-2.293-2.293-1.414 1.414 4.707 4.707 4.707-4.707-1.414-1.414z"/><path d="m23.707 9.707-1.414-1.414-2.293 2.293v-9.586h-2v9.586l-2.293-2.293-1.414 1.414 4.707 4.707z"/><path d="m31 20h2v2h-2z"/><path d="m54 23h-12.5c-.276 0-.5-.224-.5-.5 0-1.378-1.122-2.5-2.5-2.5h-3.5v2h3.5c.276 0 .5.224.5.5 0 1.378 1.122 2.5 2.5 2.5h12.5c.551 0 1 .449 1 1s-.449 1-1 1h-8v2h8c1.654 0 3-1.346 3-3s-1.346-3-3-3z"/></svg>