<?xml version="1.0" standalone="no"?>
<!DOCTYPE svg PUBLIC "-//W3C//DTD SVG 20010904//EN"
 "http://www.w3.org/TR/2001/REC-SVG-20010904/DTD/svg10.dtd">
<svg version="1.0" xmlns="http://www.w3.org/2000/svg"
 width="512.000000pt" height="512.000000pt" viewBox="0 0 512.000000 512.000000"
 preserveAspectRatio="xMidYMid meet">

<g transform="translate(0.000000,512.000000) scale(0.100000,-0.100000)"
fill="#000000" stroke="none">
<path d="M2415 5114 c-796 -66 -1464 -623 -1671 -1394 -29 -108 -54 -263 -54
-330 0 -56 -10 -64 -27 -21 -22 60 -110 85 -167 47 -15 -9 -34 -34 -43 -54
-19 -46 -5 -101 36 -134 27 -22 28 -29 40 -157 22 -246 83 -474 186 -695 195
-419 562 -786 981 -981 554 -258 1174 -258 1728 0 419 195 786 562 981 981
103 222 164 449 186 695 11 129 13 135 40 157 85 69 38 207 -71 207 -46 0 -89
-28 -103 -66 -17 -44 -27 -35 -27 24 0 64 -21 194 -49 307 -180 721 -788 1276
-1526 1395 -97 15 -349 26 -440 19z m406 -94 c650 -98 1205 -548 1425 -1157
79 -217 108 -386 108 -623 0 -186 -10 -274 -50 -435 -79 -319 -239 -600 -474
-835 -277 -277 -617 -448 -1015 -511 -103 -16 -407 -16 -510 0 -398 63 -738
234 -1015 511 -277 277 -448 617 -511 1015 -16 103 -16 407 0 510 63 398 234
738 511 1015 308 308 676 478 1135 524 66 7 316 -2 396 -14z m-2231 -1675 c26
-32 -13 -81 -47 -59 -35 22 -23 74 17 74 10 0 23 -7 30 -15z m4000 0 c26 -32
-13 -81 -47 -59 -35 22 -23 74 17 74 10 0 23 -7 30 -15z m-3890 -365 c69 -518
379 -1010 818 -1301 241 -159 491 -255 782 -300 110 -17 410 -17 520 0 420 65
773 243 1066 535 341 342 524 759 550 1254 6 121 8 131 20 104 7 -17 25 -38
39 -48 27 -18 27 -18 21 -103 -38 -492 -231 -919 -569 -1259 -297 -300 -654
-483 -1092 -559 -138 -23 -452 -23 -590 0 -433 76 -785 254 -1083 550 -341
337 -537 766 -578 1264 l-6 82 36 34 c20 19 37 43 37 53 1 11 5 -35 10 -101 4
-66 13 -158 19 -205z"/>
<path d="M2430 4954 c-113 -12 -212 -28 -265 -40 -687 -167 -1197 -723 -1306
-1424 -17 -109 -17 -391 0 -500 117 -756 695 -1334 1451 -1451 109 -17 391
-17 500 0 701 109 1258 620 1424 1306 56 233 56 557 0 790 -163 674 -714 1189
-1392 1301 -87 14 -346 26 -412 18z m291 -85 c378 -38 703 -189 978 -453 352
-340 536 -825 493 -1305 -19 -215 -58 -366 -143 -554 -207 -461 -657 -821
-1152 -921 -275 -57 -586 -40 -842 45 -504 168 -886 550 -1054 1054 -105 316
-105 694 0 1010 246 738 956 1202 1720 1124z"/>
<path d="M2532 3267 c-778 -778 -923 -928 -920 -948 2 -17 10 -25 28 -27 21
-2 166 138 948 921 778 778 923 928 920 948 -2 17 -10 25 -28 27 -21 2 -166
-138 -948 -921z"/>
<path d="M2232 3647 c-232 -232 -422 -429 -422 -438 0 -19 20 -39 40 -39 20 0
860 840 860 861 0 19 -20 39 -40 39 -8 0 -205 -190 -438 -423z"/>
<path d="M2912 2967 c-437 -437 -455 -458 -396 -473 24 -6 62 29 451 419 390
389 425 427 419 451 -15 59 -36 41 -474 -397z"/>
<path d="M2451 1106 c-8 -9 -11 -100 -9 -311 3 -271 5 -299 21 -309 12 -8 22
-8 35 0 15 10 17 38 20 309 2 307 0 325 -38 325 -10 0 -23 -6 -29 -14z"/>
<path d="M2611 1106 c-8 -9 -11 -100 -9 -311 3 -271 5 -299 21 -309 12 -8 22
-8 35 0 15 10 17 38 20 309 2 307 0 325 -38 325 -10 0 -23 -6 -29 -14z"/>
<path d="M2372 388 c-16 -16 -16 -124 1 -135 6 -4 -216 -10 -494 -13 l-506 -5
-39 -27 c-50 -36 -81 -82 -90 -135 -12 -80 -134 -73 1316 -73 1447 0 1328 -6
1316 71 -8 51 -45 107 -93 139 l-37 25 -505 5 c-278 3 -500 9 -493 13 16 11
16 119 0 135 -17 17 -359 17 -376 0z m308 -96 c0 -15 5 -33 12 -40 9 -9 -20
-12 -132 -12 -112 0 -141 3 -132 12 7 7 12 25 12 40 l0 28 120 0 120 0 0 -28z
m1049 -150 c19 -9 41 -27 49 -39 l14 -23 -1232 0 -1232 0 14 23 c8 12 30 30
49 39 32 17 108 18 1169 18 1061 0 1137 -1 1169 -18z"/>
</g>
</svg>
