<?xml version="1.0" standalone="no"?>
<!DOCTYPE svg PUBLIC "-//W3C//DTD SVG 20010904//EN"
 "http://www.w3.org/TR/2001/REC-SVG-20010904/DTD/svg10.dtd">
<svg version="1.0" xmlns="http://www.w3.org/2000/svg"
 width="512.000000pt" height="512.000000pt" viewBox="0 0 512.000000 512.000000"
 preserveAspectRatio="xMidYMid meet">

<g transform="translate(0.000000,512.000000) scale(0.100000,-0.100000)"
fill="#000000" stroke="none">
<path d="M938 4790 c-216 -37 -429 -189 -525 -375 -23 -44 -52 -114 -65 -155
l-23 -75 0 -1625 0 -1625 23 -75 c42 -134 97 -226 192 -320 94 -95 186 -150
320 -192 l75 -23 1625 0 1625 0 75 23 c133 42 226 97 320 192 95 94 150 187
192 320 l23 75 0 1625 0 1625 -23 75 c-42 134 -97 226 -192 320 -92 93 -181
146 -315 192 l-70 23 -1605 1 c-883 1 -1626 -2 -1652 -6z m3272 -338 c113 -46
196 -129 242 -242 l23 -55 0 -1595 0 -1595 -23 -55 c-46 -113 -129 -196 -242
-242 l-55 -23 -1595 0 -1595 0 -55 23 c-113 46 -196 129 -242 242 l-23 55 -3
1569 c-2 1392 -1 1576 13 1630 28 108 93 197 187 253 109 66 4 62 1738 60
l1575 -2 55 -23z"/>
<path d="M4014 3344 c-18 -9 -41 -25 -51 -37 -11 -12 -126 -207 -256 -432
-130 -226 -242 -418 -249 -428 -12 -16 -26 -8 -158 99 -183 147 -193 154 -254
154 -88 0 -92 -5 -357 -426 -217 -345 -243 -383 -258 -371 -9 8 -108 97 -221
197 -113 101 -218 191 -235 201 -38 24 -110 24 -153 2 -35 -20 -959 -1083
-973 -1121 -50 -131 90 -266 214 -207 26 12 154 153 444 486 224 258 410 469
414 469 3 0 114 -96 247 -214 262 -234 283 -247 362 -226 22 6 51 21 64 33 14
12 131 193 262 402 130 209 238 381 238 382 1 1 69 -52 152 -119 82 -66 163
-129 179 -139 68 -43 169 -13 217 64 83 132 584 1008 595 1040 43 123 -105
250 -223 191z"/>
</g>
</svg>
