<svg id="Capa_1" enable-background="new 0 0 512 512" height="512" viewBox="0 0 512 512" width="512" xmlns="http://www.w3.org/2000/svg"><path d="m101.388 25.291c-2.929-2.929-7.677-2.93-10.607 0l-38.989 38.988-38.988-38.988c-2.93-2.929-7.678-2.929-10.607 0s-2.929 7.678 0 10.606l38.989 38.989-38.989 38.988c-2.929 2.929-2.929 7.678 0 10.606 1.465 1.465 3.384 2.197 5.304 2.197 1.919 0 3.839-.732 5.304-2.197l38.988-38.988 38.988 38.988c1.465 1.464 3.385 2.197 5.304 2.197s3.839-.732 5.304-2.197c2.929-2.929 2.929-7.678 0-10.606l-38.99-38.988 38.989-38.989c2.929-2.928 2.929-7.677 0-10.606z"/><path d="m101.388 172.49c-2.93-2.929-7.678-2.929-10.607 0l-38.988 38.988-38.989-38.988c-2.93-2.929-7.678-2.929-10.607 0s-2.929 7.678 0 10.606l38.989 38.989-38.989 38.989c-2.929 2.929-2.929 7.678 0 10.606 1.465 1.464 3.385 2.197 5.304 2.197s3.839-.732 5.304-2.197l38.988-38.988 38.988 38.988c1.465 1.464 3.385 2.197 5.304 2.197s3.839-.732 5.304-2.197c2.929-2.929 2.929-7.678 0-10.606l-38.989-38.989 38.989-38.989c2.928-2.928 2.928-7.677-.001-10.606z"/><path d="m101.388 319.69c-2.93-2.929-7.678-2.929-10.607 0l-38.988 38.988-38.989-38.988c-2.93-2.929-7.678-2.929-10.607 0s-2.929 7.678 0 10.606l38.989 38.989-38.989 38.989c-2.929 2.929-2.929 7.678 0 10.606 1.465 1.464 3.385 2.197 5.304 2.197s3.839-.732 5.304-2.197l38.988-38.988 38.988 38.988c1.465 1.464 3.385 2.197 5.304 2.197s3.839-.732 5.304-2.197c2.929-2.929 2.929-7.678 0-10.606l-38.989-38.989 38.989-38.989c2.928-2.929 2.928-7.678-.001-10.606z"/><path d="m152.528 124.481c1.465 1.465 3.384 2.197 5.304 2.197 1.919 0 3.839-.732 5.304-2.197l38.988-38.988 38.988 38.988c1.465 1.464 3.385 2.197 5.304 2.197s3.839-.732 5.304-2.197c2.929-2.929 2.929-7.678 0-10.606l-38.99-38.989 38.989-38.989c2.929-2.929 2.929-7.678 0-10.606s-7.677-2.93-10.607 0l-38.988 38.988-38.988-38.988c-2.93-2.929-7.678-2.929-10.607 0s-2.929 7.678 0 10.606l38.989 38.989-38.989 38.989c-2.93 2.928-2.93 7.677-.001 10.606z"/><path d="m302.86 124.481c1.465 1.465 3.384 2.197 5.304 2.197 1.919 0 3.839-.732 5.304-2.197l38.988-38.988 38.988 38.988c1.465 1.464 3.385 2.197 5.304 2.197s3.839-.732 5.304-2.197c2.929-2.929 2.929-7.678 0-10.606l-38.989-38.989 38.989-38.989c2.929-2.929 2.929-7.678 0-10.606-2.93-2.929-7.678-2.93-10.607 0l-38.988 38.988-38.988-38.988c-2.93-2.929-7.678-2.929-10.607 0s-2.929 7.678 0 10.606l38.989 38.989-38.989 38.989c-2.931 2.928-2.931 7.677-.002 10.606z"/><path d="m152.528 271.68c1.465 1.464 3.385 2.197 5.304 2.197s3.839-.732 5.304-2.197l38.988-38.988 38.988 38.988c1.465 1.464 3.385 2.197 5.304 2.197s3.839-.732 5.304-2.197c2.929-2.929 2.929-7.678 0-10.606l-38.989-38.989 38.989-38.989c2.929-2.929 2.929-7.678 0-10.606-2.93-2.929-7.678-2.929-10.607 0l-38.988 38.988-38.988-38.988c-2.93-2.929-7.678-2.929-10.607 0s-2.929 7.678 0 10.606l38.989 38.989-38.989 38.989c-2.931 2.929-2.931 7.678-.002 10.606z"/><path d="m509.804 78.603c-2.746-2.747-7.135-2.941-10.114-.45l-314.834 263.258-21.721-21.721c-2.93-2.929-7.678-2.929-10.607 0s-2.929 7.678 0 10.606l20.775 20.775-6.923 5.789c-9.936 8.307-15.964 20.491-16.54 33.428-.576 12.938 4.347 25.612 13.506 34.771 8.676 8.676 20.505 13.55 32.727 13.55.679 0 1.361-.015 2.042-.045 12.938-.576 25.122-6.604 33.43-16.539l5.79-6.924 15.572 15.571c8.973 8.973 20.76 13.459 32.547 13.459s23.574-4.486 32.549-13.459l39.37-39.371c5.86-5.861 13.652-9.088 21.94-9.088 8.289 0 16.081 3.228 21.942 9.089l11.217 11.216c2.928 2.929 7.677 2.928 10.606 0 2.929-2.929 2.929-7.678-.001-10.607l-11.216-11.215c-17.947-17.948-47.149-17.946-65.097 0l-39.369 39.371c-12.101 12.098-31.786 12.098-43.883 0l-16.518-16.518 48.355-57.827c2.657-3.177 2.234-7.907-.942-10.564-3.18-2.657-7.908-2.236-10.565.942l-47.497 56.8-15.116-15.116 6.489-6.489c2.929-2.929 2.929-7.678 0-10.606-2.93-2.929-7.678-2.929-10.607 0l-23.492 23.493c-2.929 2.929-2.929 7.678 0 10.606 1.465 1.464 3.385 2.197 5.304 2.197s3.839-.732 5.304-2.197l6.396-6.397 16.063 16.062-6.648 7.951c-5.696 6.812-13.718 10.781-22.589 11.176-8.85.393-17.216-2.846-23.495-9.125-6.281-6.281-9.522-14.626-9.127-23.498.395-8.87 4.364-16.892 11.177-22.588l268.816-224.78-138.465 165.586c-2.657 3.178-2.234 7.908.942 10.564 3.178 2.657 7.907 2.235 10.565-.942l192.392-230.08c2.491-2.979 2.296-7.368-.45-10.114z"/><path d="m447.896 416.731c-2.93-2.929-7.678-2.929-10.607 0s-2.929 7.678 0 10.606l59.373 59.373c1.465 1.464 3.385 2.197 5.304 2.197s3.839-.732 5.304-2.197c2.929-2.929 2.929-7.678 0-10.606z"/></svg>