<?xml version="1.0" standalone="no"?>
<!DOCTYPE svg PUBLIC "-//W3C//DTD SVG 20010904//EN"
 "http://www.w3.org/TR/2001/REC-SVG-20010904/DTD/svg10.dtd">
<svg version="1.0" xmlns="http://www.w3.org/2000/svg"
 width="512.000000pt" height="512.000000pt" viewBox="0 0 512.000000 512.000000"
 preserveAspectRatio="xMidYMid meet">

<g transform="translate(0.000000,512.000000) scale(0.100000,-0.100000)"
fill="#000000" stroke="none">
<path d="M899 4668 c-3 -8 -146 -1203 -144 -1205 4 -6 375 -47 379 -42 3 2 26
184 52 404 26 220 50 403 53 407 3 4 118 -7 255 -23 136 -17 250 -29 252 -27
4 5 44 327 44 357 0 13 -8 22 -22 26 -13 3 -198 25 -413 50 -214 25 -405 48
-422 51 -18 2 -33 4 -34 2z"/>
<path d="M2230 4503 c0 -5 -9 -88 -21 -186 -12 -100 -18 -182 -13 -186 10 -9
1083 -136 1089 -129 8 8 48 368 42 374 -5 5 -1043 133 -1084 134 -7 0 -13 -3
-13 -7z"/>
<path d="M3762 4242 c-26 -211 -35 -292 -31 -296 2 -2 114 -16 249 -31 135
-16 248 -31 252 -34 4 -4 -14 -189 -41 -411 -27 -223 -47 -407 -45 -409 1 -2
87 -13 189 -25 127 -15 188 -19 191 -12 7 19 143 1190 139 1195 -3 2 -186 25
-407 52 -222 26 -422 50 -444 53 l-41 5 -11 -87z"/>
<path d="M300 2555 l0 -195 2260 0 2260 0 0 195 0 195 -2260 0 -2260 0 0 -195z"/>
<path d="M590 2091 c0 -4 -32 -275 -70 -601 -39 -326 -69 -594 -68 -595 6 -3
891 -106 893 -103 9 9 46 371 39 377 -5 5 -120 21 -256 36 -153 18 -248 33
-248 39 1 6 22 191 49 411 27 220 48 401 47 402 -2 3 -341 43 -363 43 -13 0
-23 -4 -23 -9z"/>
<path d="M3972 1618 c-5 -46 -27 -229 -48 -408 -21 -179 -39 -326 -40 -328 -1
-2 -116 10 -255 27 -140 16 -255 29 -256 27 -4 -3 -43 -332 -43 -358 l0 -24
441 -52 c243 -29 445 -50 448 -46 9 9 148 1195 140 1199 -6 5 -332 45 -360 45
-13 0 -19 -17 -27 -82z"/>
<path d="M1827 1083 c-21 -136 -39 -335 -31 -342 10 -8 1082 -136 1088 -130 8
7 48 370 43 376 -5 4 -1042 132 -1083 133 -6 0 -14 -17 -17 -37z"/>
</g>
</svg>
